<?xml version="1.0" encoding="utf-8"?>
<svg height="100" viewBox="0 0 100 100" width="100" xmlns="http://www.w3.org/2000/svg">
 <g style="-webkit-tap-highlight-color: rgba(0, 0, 0, 0);">
  <desc>
   Created with Raphaël 2.0.0
  </desc>
  <defs>
  </defs>
  <g style="-webkit-tap-highlight-color: rgba(0, 0, 0, 0);">
   <desc>
    Created with Raphaël 2.0.0
   </desc>
   <defs>
   </defs>
   <path d="M50,50C50,36.1937,38.806847,25,25,25C11.193111,25,0,36.1937,0,50C0,63.80622,11.193111,75,25,75C38.806847,75,50,63.80622,50,50" fill="#ffffff" stroke="#3b4449" stroke-linecap="round" stroke-miterlimit="6" stroke-width="2" style="stroke-linecap: round; stroke-miterlimit: 6;" transform="matrix(1,0,0,1,2150,1225)">
   </path>
   <path d="M25,0L25,25" fill="none" stroke="#3b4449" stroke-linecap="round" stroke-miterlimit="6" stroke-width="2" style="stroke-linecap: round; stroke-miterlimit: 6;" transform="matrix(1,0,0,1,2150,1225)">
   </path>
   <path d="M25,100L25,75" fill="none" stroke="#3b4449" stroke-linecap="round" stroke-miterlimit="6" stroke-width="2" style="stroke-linecap: round; stroke-miterlimit: 6;" transform="matrix(1,0,0,1,2150,1225)">
   </path>
   <path d="M21.5,62.433C23.687504,65.73794,23.687504,66.729433,25,71.68679C26.312496,66.729433,26.312496,65.73794000000001,28.5,62.433C25.874994,63.093977,24.124999,63.093977,21.5,62.433" fill="#3b4449" stroke="none" style="" transform="matrix(1,0,0,1,2150,1225)">
   </path>
   <path d="M25,64.394916L25,58.812788" fill="none" stroke="#3b4449" stroke-linecap="round" stroke-miterlimit="6" stroke-width="1.80241" style="stroke-linecap: round; stroke-miterlimit: 6;" transform="matrix(1,0,0,1,2150,1225)">
   </path>
   <path d="M20.039307,49.140381C19.556878,48.797616,19.021559,48.626228999999995,18.43335,48.626221C17.481196,48.626229,16.681392000000002,49.081144,16.033935,49.990967C15.390704,50.896572,15.069089,51.901616,15.069092,53.006104C15.069089,53.721276,15.244708,54.292565,15.595946999999999,54.719971C15.947180999999999,55.147381,16.43595,55.361086,17.062255999999998,55.361084C18.035557999999998,55.361086,18.799391999999997,55.096599999999995,19.353759999999998,54.567627L19.32202,56.021241C18.721103,56.54598,17.855707,56.808350000000004,16.725828999999997,56.808350000000004C15.718664999999998,56.808350000000004,14.906164999999998,56.478272000000004,14.288328999999997,55.818116C13.670490999999997,55.153729000000006,13.361571999999997,54.292565,13.361571999999997,53.234619C13.361571999999997,51.524989000000005,13.835528999999998,50.09042,14.783446999999997,48.930909C15.735592999999998,47.771412,16.977615999999998,47.19166,18.509520999999996,47.191651C19.258537999999994,47.19166,19.922925999999997,47.314381,20.502684999999996,47.559815L20.039306999999997,49.140381" fill="#3b4449" font-family="Trebuchet" font-size="13px" font-style="italic" font-weight="bold" stroke="none" style="font-size: 13px; font-style: italic; font-weight: bold; font-family: Trebuchet;" transform="matrix(1,0,0,1,2150,1225)">
   </path>
   <path d="M26.58374,49.184815C26.092848999999998,48.825122,25.593501,48.645272,25.085693,48.645264C24.065832999999998,48.645272,23.555905,49.030362999999994,23.555908,49.800537C23.555905,50.12639,23.826738,50.515713,24.368408,50.968506L25.326904,51.781006C25.623123,52.034917,25.828364,52.221115,25.942626999999998,52.3396C26.056879,52.453861999999994,26.177484999999997,52.614669,26.304443,52.822022C26.431390999999998,53.029382,26.526605,53.238854999999994,26.590087999999998,53.45044C26.653557999999997,53.662031,26.685298,53.877851,26.685298,54.097901C26.685292,54.948488,26.365793,55.612876,25.726802,56.091065C25.092031,56.569255,24.266837,56.80835,23.251216,56.80835C22.417555,56.80835,21.630446,56.628499999999995,20.889886999999998,56.268798999999994L21.423091,54.637451999999996C21.990147,55.064862,22.648186,55.278566,23.397212,55.27856499999999C23.850008,55.27856599999999,24.224519,55.18335499999999,24.520747,54.99291999999999C24.821198,54.79826099999999,24.971426,54.52319599999999,24.97143,54.16772499999999C24.971426,53.81649099999999,24.700593,53.42928399999999,24.15893,53.00610399999999L23.162353000000003,52.212647C22.857664000000003,51.967209,22.650307,51.789474999999996,22.540283000000002,51.679444C22.434487,51.56942299999999,22.322345000000002,51.417078999999994,22.203857000000003,51.222412C22.085366000000004,51.023525,21.996499000000004,50.8204,21.937256,50.613037C21.878006000000003,50.405687,21.848386,50.191983,21.848386,49.971924C21.848384000000003,49.117114,22.131913,48.440031000000005,22.698972,47.940674C23.266026,47.441334000000005,24.008701000000002,47.19166,24.926999000000002,47.191651C25.231682000000003,47.19166,25.621004000000003,47.227631,26.094968,47.299561C26.568920000000002,47.367281,26.901114,47.445566,27.09155,47.534423999999994L26.583737000000003,49.18481499999999" fill="#3b4449" font-family="Trebuchet" font-size="13px" font-style="italic" font-weight="bold" stroke="none" style="font-size: 13px; font-style: italic; font-weight: bold; font-family: Trebuchet;" transform="matrix(1,0,0,1,2150,1225)">
   </path>
   <path d="M31.420654,56.776612L30.519287,56.776612L28.653076,47.350342L30.417724,47.350342L31.528564,53.520264L34.79126,47.350342L36.638428000000005,47.350342L31.420654000000006,56.776612" fill="#3b4449" font-family="Trebuchet" font-size="13px" font-style="italic" font-weight="bold" stroke="none" style="font-size: 13px; font-style: italic; font-weight: bold; font-family: Trebuchet;" transform="matrix(1,0,0,1,2150,1225)">
   </path>
   <path d="M25,44.530694V31.786" fill="none" stroke="#3b4449" stroke-linecap="round" stroke-miterlimit="6" stroke-width="1.80241" style="stroke-linecap: round; stroke-miterlimit: 6;" transform="matrix(1,0,0,1,2150,1225)">
   </path>
   <text fill="#3b4449" font='10px "Arial"' font-size="16px" font-weight="bold" stroke="none" style="text-anchor: start; font: bold 16px Arial;" text-anchor="start" transform="matrix(1,0,0,1,2206.25,1275)" x="0" y="0">
    <tspan dy="-2.3999999999999995">
     I4
    </tspan>
    <tspan dy="19.2" x="0">
     PWL
    </tspan>
   </text>
   <circle cx="2175" cy="1225" fill="#999999" opacity="0" r="5" stroke="#3b4449" stroke-width="2" style="opacity: 0;">
   </circle>
   <circle cx="2175" cy="1325" fill="#999999" opacity="0" r="5" stroke="#3b4449" stroke-width="2" style="opacity: 0;">
   </circle>
  </g>
  <path d="M65.9090909090909,50.0C65.9090909090909,39.95905454545465,57.76861600000004,31.818181818181824,47.727272727272734,31.818181818181824C37.685898909090945,31.818181818181824,29.545454545454554,39.95905454545465,29.545454545454554,50.0C29.545454545454554,60.04088727272724,37.685898909090945,68.18181818181817,47.727272727272734,68.18181818181817C57.76861600000004,68.18181818181817,65.9090909090909,60.04088727272724,65.9090909090909,50.0" fill="#ffffff" stroke="#3b4449" stroke-linecap="round" stroke-miterlimit="6" stroke-width="2" style="stroke-linecap: round; stroke-miterlimit: 6;">
  </path>
  <path d="M47.727272727272734,13.636363636363647L47.727272727272734,31.818181818181824" fill="none" stroke="#3b4449" stroke-linecap="round" stroke-miterlimit="6" stroke-width="2" style="stroke-linecap: round; stroke-miterlimit: 6;">
  </path>
  <path d="M47.727272727272734,86.36363636363635L47.727272727272734,68.18181818181817" fill="none" stroke="#3b4449" stroke-linecap="round" stroke-miterlimit="6" stroke-width="2" style="stroke-linecap: round; stroke-miterlimit: 6;">
  </path>
  <path d="M48.18095854545476,34.49773309090915L47.2735861818184,34.49773309090915L47.2735861818184,38.440678545454574L43.363636363636324,38.440678545454574L43.363636363636324,39.348050909090944L47.2735861818184,39.348050909090944L47.2735861818184,43.29099636363637L48.18095854545476,43.29099636363637L48.18095854545476,39.348050909090944L52.090909090909136,39.348050909090944L52.090909090909136,38.440678545454574L48.18095854545476,38.440678545454574L48.18095854545476,34.49773309090915" fill="#3b4449" font-size="15px" font-weight="normal" stroke="none" style="font-size: 15px; font-weight: normal;">
  </path>
  <path d="M43.42137818181829,61.499265454545494L43.42137818181829,62.406637818181856L52.06616290909103,62.406637818181856L52.06616290909103,61.499265454545494L43.42137818181829,61.499265454545494" fill="#3b4449" font-size="15px" font-weight="normal" stroke="none" style="font-size: 15px; font-weight: normal;">
  </path>
  <path d="M44.11949600000008,49.37482254545453C43.768638545454515,49.125538909090984,43.37931563636367,49.00089381818178,42.951527272727304,49.00088799999998C42.259051636363736,49.00089381818178,41.67737600000015,49.33174109090911,41.20649818181816,49.99343054545454C40.7386938181819,50.65205236363653,40.50479200000017,51.38299345454563,40.504794181818326,52.186257454545476C40.50479200000017,52.70638254545458,40.63251490909104,53.12186545454545,40.887961454545334,53.43270618181819C41.14340436363636,53.74354981818189,41.49887272727282,53.898971636363555,41.954368000000315,53.8989701818182C42.66222400000022,53.898971636363555,43.217739636363525,53.706618181818264,43.62091636363633,53.32191054545451L43.597832727272746,54.37908436363629C43.16080218181811,54.76071272727289,42.53142327272756,54.95152727272728,41.709693818181925,54.95152727272728C40.97721090909084,54.95152727272728,40.38630181818188,54.71147054545464,39.93696654545454,54.23135709090911C39.48762981818185,53.74816654545471,39.262961454545504,53.12186545454545,39.262961454545504,52.35245018181831C39.262961454545504,51.10908290909091,39.60765745454555,50.06576000000001,40.29705236363637,49.22247927272721C40.98952218181827,48.37920872727278,41.89281163636392,47.95757090909088,43.006924363636344,47.95756436363641C43.55166400000023,47.95757090909088,44.034855272727555,48.04682254545455,44.456498181818326,48.225320000000096L44.11949600000008,49.37482254545453" fill="#3b4449" font-family="Trebuchet" font-size="13px" font-style="italic" font-weight="bold" stroke="none" style="font-size: 13px; font-style: italic; font-weight: bold; font-family: Trebuchet;">
  </path>
  <path d="M48.87908363636382,49.40713818181827C48.52207200000028,49.14554327272729,48.158909818181755,49.0147432727273,47.789594909090866,49.014737454545504C47.04787854545465,49.0147432727273,46.67702181818202,49.294809454545494,46.67702399999993,49.854936000000066C46.67702181818202,50.0919199999999,46.87399127272757,50.37506400000001,47.26793309090914,50.704368L47.96502109090921,51.29527709090909C48.18045309090896,51.47993963636366,48.32971927272729,51.61535636363646,48.412819636363686,51.701527272727375C48.49591200000025,51.78462690909097,48.583625454545704,51.90157745454556,48.67595854545468,52.05237963636369C48.76828436363638,52.203186909090945,48.837530909091065,52.355530909090945,48.88370036363639,52.509410909090995C48.92986036363653,52.66329527272737,48.95294399999986,52.82025527272725,48.95294399999986,52.9802916363637C48.952939636363794,53.59890036363638,48.720576727272835,54.082091636363586,48.25585600000029,54.429865454545556C47.79420436363665,54.777639999999955,47.19406327272742,54.95152727272728,46.45542981818186,54.95152727272728C45.849130909090874,54.95152727272728,45.27668800000013,54.8207272727273,44.738099636363515,54.55912654545452L45.12588436363664,53.37269236363633C45.538288727272906,53.68353600000004,46.016862545454615,53.83895709090915,46.56160872727273,53.83895636363647C46.890914909091,53.83895709090915,47.163286545454575,53.769712727272626,47.3787250909093,53.63121454545451C47.5972349090911,53.48964436363628,47.70649163636375,53.28959709090918,47.70649454545472,53.03107272727272C47.70649163636375,52.77562981818195,47.5095221818182,52.494024727272866,47.11558545454551,52.186257454545476L46.3908021818184,51.60919781818191C46.169210181818244,51.43069745454541,46.01840509090915,51.30143636363644,45.938387636363665,51.221413818181965C45.86144509090927,51.141398545454514,45.77988727272741,51.030602909090966,45.693714181818336,50.88902690909106C45.60753890909085,50.744381818181864,45.542908363636435,50.59665454545469,45.499822545454826,50.44584509090915C45.4567316363636,50.29504509090905,45.435189818181996,50.139623999999934,45.435189818181996,49.979581090909136C45.43518836363639,49.35790109090901,45.641391272727574,48.86547709090923,46.053797818182005,48.50230836363636C46.466200727272664,48.139152000000145,47.006328000000295,47.95757090909088,47.674181090909016,47.95756436363641C47.89576872727285,47.95757090909088,48.17891200000003,47.983731636363714,48.52361309090895,48.03604436363648C48.86830545454575,48.085295272727365,49.109901090909034,48.14222981818194,49.248400000000075,48.206853818181756L48.879081454545414,49.40713818181827" fill="#3b4449" font-family="Trebuchet" font-size="13px" font-style="italic" font-weight="bold" stroke="none" style="font-size: 13px; font-style: italic; font-weight: bold; font-family: Trebuchet;">
  </path>
  <path d="M52.39683927272729,54.92844509090918L51.741299636363664,54.92844509090918L50.384055272727394,48.072975999999976L51.66743563636361,48.072975999999976L52.47531927272736,52.56019200000002L54.84818909090909,48.072975999999976L56.191584000000205,48.072975999999976L52.39683927272729,54.92844509090918" fill="#3b4449" font-family="Trebuchet" font-size="13px" font-style="italic" font-weight="bold" stroke="none" style="font-size: 13px; font-style: italic; font-weight: bold; font-family: Trebuchet;">
  </path>
  <text fill="#3b4449" font='10px "Arial"' font-size="11.64px" font-weight="bold" stroke="none" style="text-anchor: start; font: bold 16px Arial;" text-anchor="start" x="70.45454545454544" y="50.0">
   <tspan dy="-1.7454545454545445">
    V10
   </tspan>
   <tspan dy="13.96363636363636" x="70.45454545454544">
    PWL
   </tspan>
  </text>
  <circle cx="47.727272727272734" cy="13.636363636363647" fill="#999999" opacity="0" r="3.6363636363636354" stroke="#3b4449" stroke-width="2" style="opacity: 0;">
  </circle>
  <circle cx="47.727272727272734" cy="86.36363636363635" fill="#999999" opacity="0" r="3.6363636363636354" stroke="#3b4449" stroke-width="2" style="opacity: 0;">
  </circle>
 </g>
</svg>
