<?xml version="1.0" encoding="utf-8"?>
<svg height="100" viewBox="0 0 100 100" width="100" xmlns="http://www.w3.org/2000/svg">
 <g style="-webkit-tap-highlight-color: rgba(0, 0, 0, 0);">
  <desc>
   Created with Raphaël 2.0.0
  </desc>
  <defs>
  </defs>
  <path d="M65.9090909090909,50.0C65.9090909090909,39.95905454545461,57.76861599999987,31.818181818181813,47.72727272727273,31.818181818181813C37.68589890909094,31.818181818181813,29.54545454545454,39.95905454545461,29.54545454545454,50.0C29.54545454545454,60.0408872727272,37.68589890909094,68.18181818181819,47.72727272727273,68.18181818181819C57.76861599999987,68.18181818181819,65.9090909090909,60.0408872727272,65.9090909090909,50.0" fill="#ffffff" stroke="#3b4449" stroke-linecap="round" stroke-miterlimit="6" stroke-width="2" style="stroke-linecap: round; stroke-miterlimit: 6;">
  </path>
  <path d="M47.72727272727273,13.636363636363626L47.72727272727273,31.818181818181813" fill="none" stroke="#3b4449" stroke-linecap="round" stroke-miterlimit="6" stroke-width="2" style="stroke-linecap: round; stroke-miterlimit: 6;">
  </path>
  <path d="M47.72727272727273,86.36363636363637L47.72727272727273,68.18181818181819" fill="none" stroke="#3b4449" stroke-linecap="round" stroke-miterlimit="6" stroke-width="2" style="stroke-linecap: round; stroke-miterlimit: 6;">
  </path>
  <path d="M45.18181818181826,59.042181818181824C46.772730181818204,61.44577454545456,46.772730181818204,62.16686036363634,47.72727272727273,65.77221090909083C48.68181527272725,62.16686036363634,48.68181527272725,61.44577454545456,50.272727272727195,59.042181818181824C48.363631999999924,59.52289236363631,47.090908363636416,59.52289236363631,45.18181818181826,59.042181818181824" fill="#3b4449" stroke="none" style="">
  </path>
  <path d="M47.72727272727273,60.469029818181816L47.72727272727273,56.40930036363628" fill="none" stroke="#3b4449" stroke-linecap="round" stroke-miterlimit="6" stroke-width="1.80241" style="stroke-linecap: round; stroke-miterlimit: 6;">
  </path>
  <path d="M44.119495999999984,49.374822545454485C43.76863854545453,49.12553890909099,43.3793156363635,49.00089381818178,42.951527272727134,49.000887999999925C42.259051636363715,49.00089381818178,41.67737599999999,49.33174109090913,41.206498181818056,49.99343054545449C40.738693818181716,50.65205236363645,40.50479200000009,51.38299345454555,40.50479418181821,52.186257454545526C40.50479200000009,52.706382545454495,40.63251490909103,53.12186545454546,40.887961454545334,53.4327061818182C41.143404363636236,53.74354981818181,41.49887272727271,53.898971636363505,41.95436800000003,53.89897018181812C42.662223999999945,53.898971636363505,43.217739636363504,53.70661818181828,43.62091636363621,53.321910545454415L43.597832727272845,54.37908436363634C43.160802181818006,54.76071272727276,42.53142327272738,54.95152727272728,41.709693818181734,54.95152727272728C40.97721090909084,54.95152727272728,40.38630181818181,54.71147054545461,39.936966545454425,54.23135709090903C39.48762981818177,53.74816654545457,39.26296145454522,53.12186545454546,39.26296145454522,52.35245018181818C39.26296145454522,51.10908290909085,39.607657454545475,50.06575999999996,40.297052363636304,49.222479272727156C40.98952218181799,48.37920872727279,41.892811636363646,47.95757090909089,43.00692436363623,47.9575643636364C43.551663999999946,47.95757090909089,44.03485527272737,48.046822545454525,44.45649818181805,48.22532000000005L44.119495999999984,49.374822545454485" fill="#3b4449" font-family="Trebuchet" font-size="13px" font-style="italic" font-weight="bold" stroke="none" style="font-size: 13px; font-style: italic; font-weight: bold; font-family: Trebuchet;">
  </path>
  <path d="M48.87908363636365,49.407138181818226C48.522072,49.14554327272725,48.158909818181776,49.01474327272721,47.78959490909085,49.01473745454547C47.04787854545465,49.01474327272721,46.67702181818182,49.29480945454549,46.677023999999946,49.854936000000066C46.67702181818182,50.0919199999999,46.87399127272751,50.375064000000016,47.267933090908976,50.70436799999997L47.96502109090913,51.295277090908996C48.180453090908955,51.47993963636357,48.3297192727273,51.61535636363637,48.4128196363635,51.7015272727273C48.49591200000006,51.784626909090974,48.58362545454563,51.901577454545475,48.675958545454506,52.052379636363646C48.76828436363637,52.20318690909081,48.83753090909089,52.35553090909089,48.883700363636194,52.5094109090909C48.929860363636365,52.663295272727275,48.95294399999995,52.82025527272726,48.95294399999995,52.9802916363637C48.9529396363637,53.59890036363634,48.72057672727277,54.082091636363536,48.255856000000016,54.42986545454553C47.79420436363638,54.77763999999992,47.19406327272732,54.95152727272728,46.45542981818184,54.95152727272728C45.849130909090974,54.95152727272728,45.276688000000135,54.82072727272725,44.7380996363634,54.55912654545453L45.12588436363636,53.37269236363635C45.53828872727263,53.68353599999996,46.01686254545443,53.83895709090902,46.56160872727253,53.838956363636385C46.89091490909072,53.83895709090902,47.16328654545439,53.76971272727262,47.37872509090903,53.631214545454476C47.597234909090915,53.48964436363634,47.706491636363666,53.28959709090914,47.706494545454646,53.03107272727278C47.706491636363666,52.77562981818187,47.5095221818182,52.49402472727279,47.115585454545396,52.186257454545526L46.390802181818216,51.60919781818182C46.16921018181824,51.43069745454542,46.01840509090897,51.301436363636405,45.938387636363494,51.22141381818194C45.8614450909091,51.14139854545447,45.77988727272721,51.030602909090916,45.69371418181805,50.88902690909092C45.60753890909076,50.744381818181814,45.54290836363615,50.59665454545461,45.49982254545465,50.445845090909096C45.4567316363636,50.29504509090905,45.43518981818191,50.13962399999999,45.43518981818191,49.97958109090906C45.4351883636362,49.35790109090895,45.64139127272741,48.8654770909092,46.053797818181806,48.50230836363627C46.46620072727258,48.13915200000012,47.00632800000024,47.95757090909089,47.674181090908924,47.9575643636364C47.89576872727287,47.95757090909089,48.17891200000013,47.98373163636357,48.52361309090905,48.036044363636336C48.868305454545464,48.08529527272732,49.109901090908835,48.142229818181846,49.248400000000075,48.20685381818175L48.8790814545453,49.407138181818226" fill="#3b4449" font-family="Trebuchet" font-size="13px" font-style="italic" font-weight="bold" stroke="none" style="font-size: 13px; font-style: italic; font-weight: bold; font-family: Trebuchet;">
  </path>
  <path d="M52.396839272727185,54.928445090909186L51.74129963636376,54.928445090909186L50.384055272727196,48.072975999999976L51.66743563636362,48.072975999999976L52.475319272727454,52.56019199999997L54.848189090909095,48.072975999999976L56.19158400000023,48.072975999999976L52.396839272727185,54.928445090909186" fill="#3b4449" font-family="Trebuchet" font-size="13px" font-style="italic" font-weight="bold" stroke="none" style="font-size: 13px; font-style: italic; font-weight: bold; font-family: Trebuchet;">
  </path>
  <path d="M47.72727272727273,46.02232290909091V" fill="none" stroke="#3b4449" stroke-linecap="round" stroke-miterlimit="6" stroke-width="1.80241" style="stroke-linecap: round; stroke-miterlimit: 6;">
  </path>
  <text fill="#3b4449" font='10px "Arial"' font-size="11.64px" font-weight="bold" stroke="none" style="text-anchor: start; font: bold 16px Arial;" text-anchor="start" x="70.45454545454547" y="50.0">
   <tspan dy="-1.7454545454545454">
    I4
   </tspan>
   <tspan dy="13.963636363636367" x="70.45454545454547">
    PWL
   </tspan>
  </text>
  <circle cx="47.72727272727273" cy="13.636363636363626" fill="#999999" opacity="0" r="3.6363636363636376" stroke="#3b4449" stroke-width="2" style="opacity: 0;">
  </circle>
  <circle cx="47.72727272727273" cy="86.36363636363637" fill="#999999" opacity="0" r="3.6363636363636376" stroke="#3b4449" stroke-width="2" style="opacity: 0;">
  </circle>
 </g>
</svg>
