<?xml version="1.0" encoding="utf-8"?>
<svg height="100" viewBox="0 0 100 100" width="100" xmlns="http://www.w3.org/2000/svg">
 <g style="-webkit-tap-highlight-color: rgba(0, 0, 0, 0);">
  <desc>
   Created with Raphaël 2.0.0
  </desc>
  <defs>
  </defs>
  <path d="M65.9090909090909,50.0C65.9090909090909,39.95905454545461,57.76861599999987,31.818181818181813,47.72727272727273,31.818181818181813C37.68589890909094,31.818181818181813,29.54545454545454,39.95905454545461,29.54545454545454,50.0C29.54545454545454,60.0408872727272,37.68589890909094,68.18181818181819,47.72727272727273,68.18181818181819C57.76861599999987,68.18181818181819,65.9090909090909,60.0408872727272,65.9090909090909,50.0" fill="#ffffff" stroke="#3b4449" stroke-linecap="round" stroke-miterlimit="6" stroke-width="2" style="stroke-linecap: round; stroke-miterlimit: 6;">
  </path>
  <path d="M47.72727272727273,13.636363636363626L47.72727272727273,31.818181818181813" fill="none" stroke="#3b4449" stroke-linecap="round" stroke-miterlimit="6" stroke-width="2" style="stroke-linecap: round; stroke-miterlimit: 6;">
  </path>
  <path d="M47.72727272727273,86.36363636363637L47.72727272727273,68.18181818181819" fill="none" stroke="#3b4449" stroke-linecap="round" stroke-miterlimit="6" stroke-width="2" style="stroke-linecap: round; stroke-miterlimit: 6;">
  </path>
  <path d="M45.18181818181826,59.042494545454595C46.772730181818204,61.446087272727326,46.772730181818204,62.1671730909091,47.72727272727273,65.77252363636359C48.68181527272725,62.1671730909091,48.68181527272725,61.446087272727326,50.272727272727195,59.042494545454595C48.363631999999924,59.52320509090907,47.090908363636416,59.52320509090907,45.18181818181826,59.042494545454595" fill="#3b4449" stroke="none" style="">
  </path>
  <path d="M47.72727272727273,59.47869381818183L47.72727272727273,36.75373745454557" fill="none" stroke="#3b4449" stroke-linecap="round" stroke-miterlimit="6" stroke-width="1.80241489" style="stroke-linecap: round; stroke-miterlimit: 6;">
  </path>
  <path d="M55.56426327272722,50.0C47.72727272727273,73.51097236363634,47.72727272727273,26.489028363636297,39.890282181818236,50.0" fill="none" stroke="#ffffff" stroke-linecap="round" stroke-miterlimit="6" stroke-width="5" style="stroke-linecap: round; stroke-miterlimit: 6;">
  </path>
  <path d="M55.56426327272722,50.0C47.72727272727273,73.51097236363634,47.72727272727273,26.489028363636297,39.890282181818236,50.0" fill="none" stroke="#3b4449" stroke-linecap="round" stroke-miterlimit="6" stroke-width="1.7241379" style="stroke-linecap: round; stroke-miterlimit: 6;">
  </path>
  <text fill="#3b4449" font='10px "Arial"' font-size="11.64px" font-weight="bold" stroke="none" style="text-anchor: start; font: bold 16px Arial;" text-anchor="start" x="70.45454545454547" y="50.0">
   <tspan dy="-8.727272727272727">
    I2
   </tspan>
   <tspan dy="13.963636363636367" x="70.45454545454547">
    sine
   </tspan>
   <tspan dy="13.963636363636367" x="70.45454545454547">
    1 kHz
   </tspan>
  </text>
  <circle cx="47.72727272727273" cy="13.636363636363626" fill="#999999" opacity="0" r="3.6363636363636376" stroke="#3b4449" stroke-width="2" style="opacity: 0;">
  </circle>
  <circle cx="47.72727272727273" cy="86.36363636363637" fill="#999999" opacity="0" r="3.6363636363636376" stroke="#3b4449" stroke-width="2" style="opacity: 0;">
  </circle>
 </g>
</svg>
