<?xml version="1.0" encoding="utf-8"?>
<svg height="100" viewBox="0 0 100 100" width="100" xmlns="http://www.w3.org/2000/svg">
 <g style="-webkit-tap-highlight-color: rgba(0, 0, 0, 0);">
  <desc>
   Created with Raphaël 2.0.0
  </desc>
  <defs>
  </defs>
  <path d="M65.9090909090909,49.99999999999999C65.9090909090909,39.95907636363623,57.76816945454531,31.81818181818181,47.72727272727273,31.81818181818181C37.686357818181634,31.81818181818181,29.545454545454547,39.95907636363623,29.545454545454547,49.99999999999999C29.545454545454547,60.04095999999984,37.686357818181634,68.18181818181817,47.72727272727273,68.18181818181817C57.76816945454531,68.18181818181817,65.9090909090909,60.04095999999984,65.9090909090909,49.99999999999999" fill="#ffffff" stroke="#3b4449" stroke-linecap="round" stroke-miterlimit="6" stroke-width="2" style="stroke-linecap: round; stroke-miterlimit: 6;">
  </path>
  <path d="M47.72727272727273,13.636378181818065L47.72727272727273,31.81818181818181" fill="none" stroke="#3b4449" stroke-linecap="round" stroke-miterlimit="6" stroke-width="2" style="stroke-linecap: round; stroke-miterlimit: 6;">
  </path>
  <path d="M47.72727272727273,86.36363636363635L47.72727272727273,68.18181818181817" fill="none" stroke="#3b4449" stroke-linecap="round" stroke-miterlimit="6" stroke-width="2" style="stroke-linecap: round; stroke-miterlimit: 6;">
  </path>
  <path d="M47.72727272727273,54.726487272727205L47.72727272727273,39.134079999999926" fill="none" stroke="#3b4449" stroke-linecap="round" stroke-miterlimit="6" stroke-width="1.49310875" style="stroke-linecap: round; stroke-miterlimit: 6;">
  </path>
  <path d="M44.16330545454551,48.93499636363639C46.39078909090905,53.389978181818144,46.39078909090905,54.726487272727205,47.72727272727273,61.408887272727185C49.0637563636364,54.726487272727205,49.0637563636364,53.389978181818144,51.291239999999945,48.93499636363639C48.61825818181816,49.82597818181809,46.836279999999846,49.82597818181809,44.16330545454551,48.93499636363639" fill="#3b4449" stroke="none" style="">
  </path>
  <text fill="#3b4449" font='10px "Arial"' font-size="11.64px" font-weight="bold" stroke="none" style="text-anchor: start; font: bold 16px Arial;" text-anchor="start" x="70.45454545454545" y="49.99999999999999">
   <tspan dy="-1.745454545454545">
    I4
   </tspan>
   <tspan dy="13.963636363636363" x="70.45454545454545">
    1 A
   </tspan>
  </text>
  <circle cx="47.72727272727273" cy="13.636363636363626" fill="#999999" opacity="0" r="3.6363636363636362" stroke="#3b4449" stroke-width="2" style="opacity: 0;">
  </circle>
  <circle cx="47.72727272727273" cy="86.36363636363635" fill="#999999" opacity="0" r="3.6363636363636362" stroke="#3b4449" stroke-width="2" style="opacity: 0;">
  </circle>
 </g>
</svg>
