<?xml version="1.0" encoding="utf-8"?>
<svg height="100" viewBox="0 0 100 100" width="100" xmlns="http://www.w3.org/2000/svg">
 <g style="-webkit-tap-highlight-color: rgba(0, 0, 0, 0);">
  <desc>
   Created with Raphaël 2.0.0
  </desc>
  <defs>
  </defs>
  <g style="-webkit-tap-highlight-color: rgba(0, 0, 0, 0);">
   <desc>
    Created with Raphaël 2.0.0
   </desc>
   <defs>
   </defs>
   <path d="M50,50C50,36.1937,38.806847,25,25,25C11.193111,25,0,36.1937,0,50C0,63.80622,11.193111,75,25,75C38.806847,75,50,63.80622,50,50" fill="#ffffff" stroke="#3b4449" stroke-linecap="round" stroke-miterlimit="6" stroke-width="2" style="stroke-linecap: round; stroke-miterlimit: 6;" transform="matrix(1,0,0,1,2150,1225)">
   </path>
   <path d="M25,0L25,25" fill="none" stroke="#3b4449" stroke-linecap="round" stroke-miterlimit="6" stroke-width="2" style="stroke-linecap: round; stroke-miterlimit: 6;" transform="matrix(1,0,0,1,2150,1225)">
   </path>
   <path d="M25,100L25,75" fill="none" stroke="#3b4449" stroke-linecap="round" stroke-miterlimit="6" stroke-width="2" style="stroke-linecap: round; stroke-miterlimit: 6;" transform="matrix(1,0,0,1,2150,1225)">
   </path>
   <path d="M21.5,62.433C23.687504,65.73794,23.687504,66.729433,25,71.68679C26.312496,66.729433,26.312496,65.73794000000001,28.5,62.433C25.874994,63.093977,24.124999,63.093977,21.5,62.433" fill="#3b4449" stroke="none" style="" transform="matrix(1,0,0,1,2150,1225)">
   </path>
   <path d="M25,64.394916L25,58.812788" fill="none" stroke="#3b4449" stroke-linecap="round" stroke-miterlimit="6" stroke-width="1.80241" style="stroke-linecap: round; stroke-miterlimit: 6;" transform="matrix(1,0,0,1,2150,1225)">
   </path>
   <path d="M20.039307,49.140381C19.556878,48.797616,19.021559,48.626228999999995,18.43335,48.626221C17.481196,48.626229,16.681392000000002,49.081144,16.033935,49.990967C15.390704,50.896572,15.069089,51.901616,15.069092,53.006104C15.069089,53.721276,15.244708,54.292565,15.595946999999999,54.719971C15.947180999999999,55.147381,16.43595,55.361086,17.062255999999998,55.361084C18.035557999999998,55.361086,18.799391999999997,55.096599999999995,19.353759999999998,54.567627L19.32202,56.021241C18.721103,56.54598,17.855707,56.808350000000004,16.725828999999997,56.808350000000004C15.718664999999998,56.808350000000004,14.906164999999998,56.478272000000004,14.288328999999997,55.818116C13.670490999999997,55.153729000000006,13.361571999999997,54.292565,13.361571999999997,53.234619C13.361571999999997,51.524989000000005,13.835528999999998,50.09042,14.783446999999997,48.930909C15.735592999999998,47.771412,16.977615999999998,47.19166,18.509520999999996,47.191651C19.258537999999994,47.19166,19.922925999999997,47.314381,20.502684999999996,47.559815L20.039306999999997,49.140381" fill="#3b4449" font-family="Trebuchet" font-size="13px" font-style="italic" font-weight="bold" stroke="none" style="font-size: 13px; font-style: italic; font-weight: bold; font-family: Trebuchet;" transform="matrix(1,0,0,1,2150,1225)">
   </path>
   <path d="M26.58374,49.184815C26.092848999999998,48.825122,25.593501,48.645272,25.085693,48.645264C24.065832999999998,48.645272,23.555905,49.030362999999994,23.555908,49.800537C23.555905,50.12639,23.826738,50.515713,24.368408,50.968506L25.326904,51.781006C25.623123,52.034917,25.828364,52.221115,25.942626999999998,52.3396C26.056879,52.453861999999994,26.177484999999997,52.614669,26.304443,52.822022C26.431390999999998,53.029382,26.526605,53.238854999999994,26.590087999999998,53.45044C26.653557999999997,53.662031,26.685298,53.877851,26.685298,54.097901C26.685292,54.948488,26.365793,55.612876,25.726802,56.091065C25.092031,56.569255,24.266837,56.80835,23.251216,56.80835C22.417555,56.80835,21.630446,56.628499999999995,20.889886999999998,56.268798999999994L21.423091,54.637451999999996C21.990147,55.064862,22.648186,55.278566,23.397212,55.27856499999999C23.850008,55.27856599999999,24.224519,55.18335499999999,24.520747,54.99291999999999C24.821198,54.79826099999999,24.971426,54.52319599999999,24.97143,54.16772499999999C24.971426,53.81649099999999,24.700593,53.42928399999999,24.15893,53.00610399999999L23.162353000000003,52.212647C22.857664000000003,51.967209,22.650307,51.789474999999996,22.540283000000002,51.679444C22.434487,51.56942299999999,22.322345000000002,51.417078999999994,22.203857000000003,51.222412C22.085366000000004,51.023525,21.996499000000004,50.8204,21.937256,50.613037C21.878006000000003,50.405687,21.848386,50.191983,21.848386,49.971924C21.848384000000003,49.117114,22.131913,48.440031000000005,22.698972,47.940674C23.266026,47.441334000000005,24.008701000000002,47.19166,24.926999000000002,47.191651C25.231682000000003,47.19166,25.621004000000003,47.227631,26.094968,47.299561C26.568920000000002,47.367281,26.901114,47.445566,27.09155,47.534423999999994L26.583737000000003,49.18481499999999" fill="#3b4449" font-family="Trebuchet" font-size="13px" font-style="italic" font-weight="bold" stroke="none" style="font-size: 13px; font-style: italic; font-weight: bold; font-family: Trebuchet;" transform="matrix(1,0,0,1,2150,1225)">
   </path>
   <path d="M31.420654,56.776612L30.519287,56.776612L28.653076,47.350342L30.417724,47.350342L31.528564,53.520264L34.79126,47.350342L36.638428000000005,47.350342L31.420654000000006,56.776612" fill="#3b4449" font-family="Trebuchet" font-size="13px" font-style="italic" font-weight="bold" stroke="none" style="font-size: 13px; font-style: italic; font-weight: bold; font-family: Trebuchet;" transform="matrix(1,0,0,1,2150,1225)">
   </path>
   <path d="M25,44.530694V31.786" fill="none" stroke="#3b4449" stroke-linecap="round" stroke-miterlimit="6" stroke-width="1.80241" style="stroke-linecap: round; stroke-miterlimit: 6;" transform="matrix(1,0,0,1,2150,1225)">
   </path>
   <text fill="#3b4449" font='10px "Arial"' font-size="16px" font-weight="bold" stroke="none" style="text-anchor: start; font: bold 16px Arial;" text-anchor="start" transform="matrix(1,0,0,1,2206.25,1275)" x="0" y="0">
    <tspan dy="-2.3999999999999995">
     I4
    </tspan>
    <tspan dy="19.2" x="0">
     PWL
    </tspan>
   </text>
   <circle cx="2175" cy="1225" fill="#999999" opacity="0" r="5" stroke="#3b4449" stroke-width="2" style="opacity: 0;">
   </circle>
   <circle cx="2175" cy="1325" fill="#999999" opacity="0" r="5" stroke="#3b4449" stroke-width="2" style="opacity: 0;">
   </circle>
  </g>
  <path d="M65.9090909090909,49.99999999999999C65.9090909090909,39.959054545454634,57.76861600000004,31.818181818181813,47.727272727272734,31.818181818181813C37.685898909090945,31.818181818181813,29.54545454545455,39.959054545454634,29.54545454545455,49.99999999999999C29.54545454545455,60.04088727272736,37.685898909090945,68.18181818181816,47.727272727272734,68.18181818181816C57.76861600000004,68.18181818181816,65.9090909090909,60.04088727272736,65.9090909090909,49.99999999999999" fill="#ffffff" stroke="#3b4449" stroke-linecap="round" stroke-miterlimit="6" stroke-width="2" style="stroke-linecap: round; stroke-miterlimit: 6;">
  </path>
  <path d="M47.727272727272734,13.636363636363633L47.727272727272734,31.818181818181813" fill="none" stroke="#3b4449" stroke-linecap="round" stroke-miterlimit="6" stroke-width="2" style="stroke-linecap: round; stroke-miterlimit: 6;">
  </path>
  <path d="M47.727272727272734,86.36363636363635L47.727272727272734,68.18181818181816" fill="none" stroke="#3b4449" stroke-linecap="round" stroke-miterlimit="6" stroke-width="2" style="stroke-linecap: round; stroke-miterlimit: 6;">
  </path>
  <path d="M48.18095854545476,34.497733090909136L47.2735861818184,34.497733090909136L47.2735861818184,38.44067854545457L43.363636363636324,38.44067854545457L43.363636363636324,39.34805090909093L47.2735861818184,39.34805090909093L47.2735861818184,43.29099636363636L48.18095854545476,43.29099636363636L48.18095854545476,39.34805090909093L52.090909090909136,39.34805090909093L52.090909090909136,38.44067854545457L48.18095854545476,38.44067854545457L48.18095854545476,34.497733090909136" fill="#3b4449" font-size="15px" font-weight="normal" stroke="none" style="font-size: 15px; font-weight: normal;">
  </path>
  <path d="M43.42137818181829,61.49926545454549L43.42137818181829,62.40663781818185L52.06616290909103,62.40663781818185L52.06616290909103,61.49926545454549L43.42137818181829,61.49926545454549" fill="#3b4449" font-size="15px" font-weight="normal" stroke="none" style="font-size: 15px; font-weight: normal;">
  </path>
  <path d="M58.63636363636374,46.36368727272736H47.727272727272734V53.636414545454656H36.81818181818197" fill="none" stroke="#3b4449" stroke-linecap="round" stroke-miterlimit="6" stroke-width="1.72414" style="stroke-linecap: round; stroke-miterlimit: 6;">
  </path>
  <text fill="#3b4449" font='10px "Arial"' font-size="11.64px" font-weight="bold" stroke="none" style="text-anchor: start; font: bold 16px Arial;" text-anchor="start" x="70.45454545454545" y="49.99999999999999">
   <tspan dy="-1.7454545454545447">
    V12
   </tspan>
   <tspan dy="13.963636363636361" x="70.45454545454545">
    0 s
   </tspan>
  </text>
  <circle cx="47.727272727272734" cy="13.636363636363633" fill="#999999" opacity="0" r="3.6363636363636362" stroke="#3b4449" stroke-width="2" style="opacity: 0;">
  </circle>
  <circle cx="47.727272727272734" cy="86.36363636363635" fill="#999999" opacity="0" r="3.6363636363636362" stroke="#3b4449" stroke-width="2" style="opacity: 0;">
  </circle>
 </g>
</svg>
