<?xml version="1.0" encoding="utf-8"?>
<svg height="100" viewBox="0 0 100 100" width="100" xmlns="http://www.w3.org/2000/svg">
 <g style="-webkit-tap-highlight-color: rgba(0, 0, 0, 0);">
  <desc>
   Created with Raphaël 2.0.0
  </desc>
  <defs>
  </defs>
  <path d="M65.9090909090909,50.0C65.9090909090909,39.95905454545466,57.76861599999995,31.818181818181817,47.72727272727273,31.818181818181817C37.68589890909094,31.818181818181817,29.545454545454543,39.95905454545466,29.545454545454543,50.0C29.545454545454543,60.04088727272737,37.68589890909094,68.18181818181819,47.72727272727273,68.18181818181819C57.76861599999995,68.18181818181819,65.9090909090909,60.04088727272737,65.9090909090909,50.0" fill="#ffffff" stroke="#3b4449" stroke-linecap="round" stroke-miterlimit="6" stroke-width="2" style="stroke-linecap: round; stroke-miterlimit: 6;">
  </path>
  <path d="M47.72727272727273,13.636363636363633L47.72727272727273,31.818181818181817" fill="none" stroke="#3b4449" stroke-linecap="round" stroke-miterlimit="6" stroke-width="2" style="stroke-linecap: round; stroke-miterlimit: 6;">
  </path>
  <path d="M47.72727272727273,86.36363636363637L47.72727272727273,68.18181818181819" fill="none" stroke="#3b4449" stroke-linecap="round" stroke-miterlimit="6" stroke-width="2" style="stroke-linecap: round; stroke-miterlimit: 6;">
  </path>
  <path d="M56.81818181818182,50.0C47.72727272727273,77.27272727272728,47.72727272727273,22.727272727272727,38.63636363636363,50.0" fill="none" stroke="#3b4449" stroke-linecap="round" stroke-miterlimit="6" stroke-width="2" style="stroke-linecap: round; stroke-miterlimit: 6;">
  </path>
  <path d="M48.180958545454615,34.49773309090918L47.27358618181842,34.49773309090918L47.27358618181842,38.44067854545463L43.363636363636495,38.44067854545463L43.363636363636495,39.34805090909097L47.27358618181842,39.34805090909097L47.27358618181842,43.29099636363643L48.180958545454615,43.29099636363643L48.180958545454615,39.34805090909097L52.09090909090926,39.34805090909097L52.09090909090926,38.44067854545463L48.180958545454615,38.44067854545463L48.180958545454615,34.49773309090918" fill="#3b4449" font-size="15px" font-weight="normal" stroke="none" style="font-size: 15px; font-weight: normal;">
  </path>
  <path d="M43.42137818181846,61.49926545454554L43.42137818181846,62.40663781818188L52.06616290909126,62.40663781818188L52.06616290909126,61.49926545454554L43.42137818181846,61.49926545454554" fill="#3b4449" font-size="15px" font-weight="normal" stroke="none" style="font-size: 15px; font-weight: normal;">
  </path>
  <text fill="#3b4449" font='10px "Arial"' font-size="11.64px" font-weight="bold" stroke="none" style="text-anchor: start; font: bold 16px Arial;" text-anchor="start" x="70.45454545454545" y="50.0">
   <tspan dy="-8.727272727272725">
    V6
   </tspan>
   <tspan dy="13.963636363636365" x="70.45454545454545">
    sine
   </tspan>
   <tspan dy="13.963636363636365" x="70.45454545454545">
    1 kHz
   </tspan>
  </text>
  <circle cx="47.72727272727273" cy="13.636363636363633" fill="#999999" opacity="0" r="3.6363636363636367" stroke="#3b4449" stroke-width="2" style="opacity: 0;">
  </circle>
  <circle cx="47.72727272727273" cy="86.36363636363637" fill="#999999" opacity="0" r="3.6363636363636367" stroke="#3b4449" stroke-width="2" style="opacity: 0;">
  </circle>
 </g>
</svg>
