<?xml version="1.0" encoding="utf-8"?>
<svg height="100" viewBox="0 0 100 100" width="100" xmlns="http://www.w3.org/2000/svg">
 <g style="-webkit-tap-highlight-color: rgba(0, 0, 0, 0);">
  <desc>
   Created with Raphaël 2.0.0
  </desc>
  <defs>
  </defs>
  <path d="M65.9090909090909,49.99999999999999C65.9090909090909,39.959083636363566,57.768185454545424,31.81818181818181,47.72727272727273,31.81818181818181C37.68636727272702,31.81818181818181,29.545454545454547,39.959083636363566,29.545454545454547,49.99999999999999C29.545454545454547,60.04095999999984,37.68636727272702,68.18181818181817,47.72727272727273,68.18181818181817C57.768185454545424,68.18181818181817,65.9090909090909,60.04095999999984,65.9090909090909,49.99999999999999" fill="#ffffff" stroke="#3b4449" stroke-linecap="round" stroke-miterlimit="6" stroke-width="2" style="stroke-linecap: round; stroke-miterlimit: 6;">
  </path>
  <path d="M47.72727272727273,13.636363636363626L47.72727272727273,31.81818181818181" fill="none" stroke="#3b4449" stroke-linecap="round" stroke-miterlimit="6" stroke-width="2" style="stroke-linecap: round; stroke-miterlimit: 6;">
  </path>
  <path d="M47.72727272727273,86.36365090909078L47.72727272727273,68.18181818181817" fill="none" stroke="#3b4449" stroke-linecap="round" stroke-miterlimit="6" stroke-width="2" style="stroke-linecap: round; stroke-miterlimit: 6;">
  </path>
  <path d="M48.33983272727264,37.758545454545285L47.11471781818163,37.758545454545285L47.11471781818163,43.08222545454538L41.83558690909081,43.08222545454538L41.83558690909081,44.3073381818181L47.11471781818163,44.3073381818181L47.11471781818163,49.63099636363631L48.33983272727264,49.63099636363631L48.33983272727264,44.3073381818181L53.618964363636195,44.3073381818181L53.618964363636195,43.08222545454538L48.33983272727264,43.08222545454538L48.33983272727264,37.758545454545285" fill="#3b4449" font-size="15px" font-weight="normal" stroke="none" style="font-size: 15px; font-weight: normal;">
  </path>
  <path d="M41.91351927272713,57.55906909090903L41.91351927272713,58.78415999999998L53.58552218181808,58.78415999999998L53.58552218181808,57.55906909090903L41.91351927272713,57.55906909090903" fill="#3b4449" font-size="15px" font-weight="normal" stroke="none" style="font-size: 15px; font-weight: normal;">
  </path>
  <text fill="#3b4449" font='10px "Arial"' font-size="11.64px" font-weight="bold" stroke="none" style="text-anchor: start; font: bold 16px Arial;" text-anchor="start" x="70.45454545454545" y="49.99999999999999">
   <tspan dy="-1.745454545454545">
    V4
   </tspan>
   <tspan dy="13.963636363636363" x="70.45454545454545">
    1 V
   </tspan>
  </text>
  <circle cx="47.72727272727273" cy="13.636363636363626" fill="#999999" opacity="0" r="3.6363636363636362" stroke="#3b4449" stroke-width="2" style="opacity: 0;">
  </circle>
  <circle cx="47.72727272727273" cy="86.36363636363635" fill="#999999" opacity="0" r="3.6363636363636362" stroke="#3b4449" stroke-width="2" style="opacity: 0;">
  </circle>
 </g>
</svg>
